<svg id="Layer_1" data-name="Layer 1" xmlns="http://www.w3.org/2000/svg" viewBox="0 0 1083.29 864.15"><defs><style>.cls-1{fill:#028bc1;}.cls-2{fill:#486496;}.cls-3{fill:#e1712f;}</style></defs><title>ARTDECO_LOGO</title><path class="cls-1" d="M770.93,792H362.8l-41.68,72.2H812.61Zm312.36-108.17-79.14,79.14V720H404.23l41.68-72.2h558.24V604.88l43.17,42.92Z"/><path class="cls-2" d="M645.89,575.6H562.52l-37.46-65,41.68-72.2ZM650.1,294l-41.68,72.2L729.25,575.6h83.36Z"/><path class="cls-3" d="M415.89,144.15C293.74,355,120.71,655.18,0,864.15H83.36C196.71,668.48,343.5,413.07,457.57,216.35v-.25Zm320.55-36.47L699.23,86.09C684.93,111,328.81,727.71,250.09,864.15H166.73c88.63-153.71,457.41-791.95,470-814L599.49,28.78c26.91-7.21,81.4-22.1,107.93-29C714.35,26.57,729.28,81.14,736.44,107.68Z"/></svg>